<svg width="21" height="20" viewBox="0 0 21 20" fill="none" xmlns="http://www.w3.org/2000/svg">
<path d="M15.1042 0C13.2917 0 11.5521 0.84375 10.4167 2.17708C9.28125 0.84375 7.54167 0 5.72917 0C2.52083 0 0 2.52083 0 5.72917C0 9.66667 3.54167 12.875 8.90625 17.75L10.4167 19.1146L11.9271 17.7396C17.2917 12.875 20.8333 9.66667 20.8333 5.72917C20.8333 2.52083 18.3125 0 15.1042 0ZM10.5208 16.1979L10.4167 16.3021L10.3125 16.1979C5.35417 11.7083 2.08333 8.73958 2.08333 5.72917C2.08333 3.64583 3.64583 2.08333 5.72917 2.08333C7.33333 2.08333 8.89583 3.11458 9.44792 4.54167H11.3958C11.9375 3.11458 13.5 2.08333 15.1042 2.08333C17.1875 2.08333 18.75 3.64583 18.75 5.72917C18.75 8.73958 15.4792 11.7083 10.5208 16.1979Z" fill="black"/>
</svg>
