<svg width="90" height="75" viewBox="0 0 90 75" fill="none" xmlns="http://www.w3.org/2000/svg">
<path d="M79.456 50.672C77.824 50.672 76.368 50.272 75.088 49.472C73.84 48.672 72.816 47.76 72.016 46.736V50H58.864V42.128H60.976V20.528H58.864V12.656H72.016V26.576C72.816 25.552 73.84 24.64 75.088 23.84C76.368 23.04 77.824 22.64 79.456 22.64C82.72 22.64 85.168 23.856 86.8 26.288C88.464 28.72 89.296 32.176 89.296 36.656C89.296 41.136 88.464 44.592 86.8 47.024C85.168 49.456 82.72 50.672 79.456 50.672ZM74.8 42.128C75.728 42.128 76.416 41.888 76.864 41.408C77.344 40.896 77.584 40.112 77.584 39.056V34.256C77.584 33.2 77.344 32.432 76.864 31.952C76.416 31.44 75.728 31.184 74.8 31.184C73.872 31.184 73.168 31.44 72.688 31.952C72.24 32.432 72.016 33.2 72.016 34.256V39.056C72.016 40.112 72.24 40.896 72.688 41.408C73.168 41.888 73.872 42.128 74.8 42.128Z" fill="#6CC299" fill-opacity="0.5"/>
<path d="M34.04 25V32.872H31.64L31.64 54.472H34.04V62.344H1.64V47.848H12.392V54.472H18.2V46.888H13.976V41.416H18.2V32.872H12.392V40.456L1.64 40.456V25L34.04 25Z" fill="#FFB800"/>
<path d="M38.584 62V56.096H42.04V39.896H37.504V35.828L45.496 33.992H51.544V56.096H54.568V62H38.584Z" fill="black"/>
</svg>
