<svg width="252" height="68" viewBox="0 0 252 68" fill="none" xmlns="http://www.w3.org/2000/svg">
<path d="M38.648 52.036V46.096H40.232V29.896H38.648V23.992H48.512V46.096H50.096V52.036H38.648ZM52.1699 52V46.096H55.6259V29.896H51.0899V25.828L59.0819 23.992H65.1299V46.096H68.1539V52H52.1699ZM78.9345 52.504C76.3905 52.504 74.4705 51.892 73.1745 50.668C71.9025 49.42 71.2665 47.332 71.2665 44.404V37.888H69.6825V31.984C70.5945 31.984 71.2785 31.756 71.7345 31.3C72.1905 30.82 72.4185 30.172 72.4185 29.356V27.736H80.0505V31.984H84.9105V37.888H80.0505V43.792C80.0505 44.584 80.2185 45.172 80.5545 45.556C80.9145 45.916 81.4425 46.096 82.1385 46.096C83.0505 46.096 84.0465 45.988 85.1265 45.772V51.424C84.4545 51.688 83.5425 51.928 82.3905 52.144C81.2625 52.384 80.1105 52.504 78.9345 52.504ZM97.0127 52.504C93.6047 52.504 90.9407 51.616 89.0207 49.84C87.1007 48.04 86.1407 45.424 86.1407 41.992C86.1407 38.56 87.1007 35.956 89.0207 34.18C90.9407 32.38 93.6047 31.48 97.0127 31.48C100.397 31.48 102.833 32.368 104.321 34.144C105.833 35.896 106.589 38.08 106.589 40.696V43.288H94.9247V43.504C94.9247 44.392 95.1887 45.052 95.7167 45.484C96.2447 45.892 97.1207 46.096 98.3447 46.096C99.8087 46.096 101.201 45.988 102.521 45.772C103.841 45.556 104.993 45.28 105.977 44.944V50.704C105.137 51.16 103.901 51.58 102.269 51.964C100.661 52.324 98.9087 52.504 97.0127 52.504ZM99.1007 39.328V38.896C99.1007 38.08 98.9207 37.492 98.5607 37.132C98.2247 36.772 97.7087 36.592 97.0127 36.592C96.3167 36.592 95.7887 36.784 95.4287 37.168C95.0927 37.528 94.9247 38.104 94.9247 38.896V39.328H99.1007ZM168.566 46.096V52H158.702V49.192C156.974 51.4 154.814 52.504 152.222 52.504C150.23 52.504 148.73 51.88 147.722 50.632C146.738 49.384 146.246 47.668 146.246 45.484V37.888H144.662V31.984H154.526V43.792C154.526 44.584 154.694 45.172 155.03 45.556C155.39 45.916 155.918 46.096 156.614 46.096C157.31 46.096 157.826 45.916 158.162 45.556C158.522 45.172 158.702 44.584 158.702 43.792V37.888H156.758V31.984H166.982V46.096H168.566ZM184.93 31.48C185.41 31.48 185.866 31.528 186.298 31.624C186.73 31.72 187.09 31.84 187.378 31.984V38.86C186.394 38.452 185.338 38.248 184.21 38.248C182.698 38.248 181.534 38.644 180.718 39.436C179.902 40.228 179.494 41.404 179.494 42.964V46.096H182.734V52H169.63V46.096H171.214V37.888H169.63V31.984H179.494V34.612C180.166 33.604 180.934 32.836 181.798 32.308C182.662 31.756 183.706 31.48 184.93 31.48ZM199.091 60.496C197.363 60.496 195.707 60.376 194.123 60.136C192.563 59.896 191.351 59.62 190.487 59.308V53.404C193.031 53.86 195.311 54.088 197.327 54.088C198.695 54.088 199.679 53.872 200.279 53.44C200.903 53.032 201.215 52.252 201.215 51.1V49.552C200.615 50.32 199.835 51.004 198.875 51.604C197.939 52.204 196.859 52.504 195.635 52.504C193.187 52.504 191.339 51.592 190.091 49.768C188.867 47.944 188.255 45.352 188.255 41.992C188.255 38.632 188.867 36.04 190.091 34.216C191.339 32.392 193.187 31.48 195.635 31.48C196.859 31.48 197.939 31.78 198.875 32.38C199.835 32.98 200.615 33.664 201.215 34.432V31.984H211.079V37.888H209.495V50.56C209.495 54.04 208.631 56.56 206.903 58.12C205.175 59.704 202.571 60.496 199.091 60.496ZM199.127 46.096C199.823 46.096 200.339 45.916 200.675 45.556C201.035 45.172 201.215 44.584 201.215 43.792V40.192C201.215 39.4 201.035 38.824 200.675 38.464C200.339 38.08 199.823 37.888 199.127 37.888C198.431 37.888 197.903 38.08 197.543 38.464C197.207 38.824 197.039 39.4 197.039 40.192V43.792C197.039 44.584 197.207 45.172 197.543 45.556C197.903 45.916 198.431 46.096 199.127 46.096ZM222.825 52.504C219.417 52.504 216.753 51.616 214.833 49.84C212.913 48.04 211.953 45.424 211.953 41.992C211.953 38.56 212.913 35.956 214.833 34.18C216.753 32.38 219.417 31.48 222.825 31.48C226.209 31.48 228.645 32.368 230.133 34.144C231.645 35.896 232.401 38.08 232.401 40.696V43.288H220.737V43.504C220.737 44.392 221.001 45.052 221.529 45.484C222.057 45.892 222.933 46.096 224.157 46.096C225.621 46.096 227.013 45.988 228.333 45.772C229.653 45.556 230.805 45.28 231.789 44.944V50.704C230.949 51.16 229.713 51.58 228.081 51.964C226.473 52.324 224.721 52.504 222.825 52.504ZM224.913 39.328V38.896C224.913 38.08 224.733 37.492 224.373 37.132C224.037 36.772 223.521 36.592 222.825 36.592C222.129 36.592 221.601 36.784 221.241 37.168C220.905 37.528 220.737 38.104 220.737 38.896V39.328H224.913ZM248.844 31.48C249.324 31.48 249.78 31.528 250.212 31.624C250.644 31.72 251.004 31.84 251.292 31.984V38.86C250.308 38.452 249.252 38.248 248.124 38.248C246.612 38.248 245.448 38.644 244.632 39.436C243.816 40.228 243.408 41.404 243.408 42.964V46.096H246.648V52H233.544V46.096H235.128V37.888H233.544V31.984H243.408V34.612C244.08 33.604 244.848 32.836 245.712 32.308C246.576 31.756 247.62 31.48 248.844 31.48Z" fill="black"/>
<path d="M107.972 44.128H110.372V22.528H107.972V14.656H130.004C134.004 14.656 137.124 15.472 139.364 17.104C141.604 18.736 142.724 21.072 142.724 24.112C142.724 26 142.276 27.6 141.38 28.912C140.484 30.192 139.428 31.168 138.212 31.84C137.028 32.48 135.876 32.912 134.756 33.136V33.616C137.028 33.84 139.076 34.56 140.9 35.776C142.724 36.992 143.636 39.168 143.636 42.304C143.636 45.664 142.372 48.128 139.844 49.696C137.316 51.232 134.036 52 130.004 52H107.972V44.128ZM126.404 30.4C127.332 30.4 128.02 30.16 128.468 29.68C128.948 29.168 129.188 28.384 129.188 27.328V25.6C129.188 24.544 128.948 23.776 128.468 23.296C128.02 22.784 127.332 22.528 126.404 22.528H123.812V30.4H126.404ZM126.74 44.128C127.668 44.128 128.356 43.888 128.804 43.408C129.284 42.896 129.524 42.112 129.524 41.056V38.944C129.524 37.888 129.284 37.12 128.804 36.64C128.356 36.128 127.668 35.872 126.74 35.872H123.812V44.128H126.74Z" fill="#6CC299" fill-opacity="0.5"/>
<path d="M34.04 16V23.872H31.64L31.64 45.472H34.04V53.344H1.64V38.848H12.392V45.472H18.2V37.888H13.976V32.416H18.2V23.872H12.392V31.456L1.64 31.456V16L34.04 16Z" fill="#FFB800"/>
</svg>
